<?xml version="1.0" encoding="UTF-8"?>
<svg width="166px" height="126px" viewBox="0 0 166 126" version="1.1" xmlns="http://www.w3.org/2000/svg" xmlns:xlink="http://www.w3.org/1999/xlink">
    <title>Bugsee-Logo</title>
    <g id="Page-1" stroke="none" stroke-width="1" fill="none" fill-rule="evenodd">
        <g id="Bugsee-Logo" fill-rule="nonzero">
            <ellipse id="Oval-1" fill="#FFFFFF" cx="115" cy="26.5" rx="14" ry="12.5"></ellipse>
            <path d="M116.977552,6.6864273 C118.475455,7.302109 119.951719,7.9593079 121.404896,8.6565821 C123.240632,6.7727542 125.736112,5.7013498 128.321241,5.614977 C129.719452,7.8450932 130.220062,10.568665 129.637916,13.185894 C146.898564,23.9703903 159.969311,40.778598 165.869995,60.6464666 L159.450279,60.646465 C154.078537,49.1036603 142.329899,41.096169 128.700845,41.096169 C109.997477,41.096169 94.835402,56.1762874 94.835402,74.778556 C94.835402,78.173651 95.340448,81.451425 96.279892,84.541611 L84.965783,84.541611 L84.965783,74.119421 L81.609639,74.119421 L81.609639,84.541611 L71.4165661,84.541611 L71.4165661,74.119421 L57.9919881,74.119421 L57.9919881,84.541611 L47.7958752,84.541611 L47.7958752,74.119421 L44.4397307,74.119421 L44.4397307,84.541611 L34.2436178,84.541611 L34.2436178,84.541611 L34.2436178,74.119421 L27.5313288,74.119421 L27.5313288,84.541611 L0,84.541611 C0,38.0359388 37.9051888,0.3356429 84.663609,0.3356429 C92.960331,0.3356429 100.978315,1.5226086 108.555263,3.7351183 C109.656621,2.1064044 111.215417,0.8294884 113.025956,0.0641793 C115.138036,1.6507592 116.585427,4.0238866 116.977551,6.6864267 L116.977552,6.6864273 Z M114.803854,34.3548539 C119.479696,34.3548539 123.270215,30.5848243 123.270215,25.9342571 C123.270215,21.2836899 119.479696,17.5136603 114.803854,17.5136603 C110.128012,17.5136603 106.337493,21.2836899 106.337493,25.9342571 C106.337493,30.5848243 110.128012,34.3548539 114.803854,34.3548539 Z M117.851744,31.9970868 C115.981407,31.9970868 114.465199,30.4890749 114.465199,28.6288481 C114.465199,26.7686212 115.981407,25.2606094 117.851744,25.2606094 C119.72208,25.2606094 121.238288,26.7686212 121.238288,28.6288481 C121.238288,30.4890749 119.72208,31.9970868 117.851744,31.9970868 Z" id="Combined-Shape" fill="#FB5252"></path>
            <path d="M0.3242188,125 L0.3242188,92.296875 L11.5322266,92.296875 C13.2991625,92.296875 14.8863862,92.472817 16.2939453,92.824707 C17.7015044,93.176597 18.8919222,93.71191 19.8652344,94.430664 C20.8385465,95.149418 21.5834935,96.066563 22.1000977,97.182129 C22.6167018,98.297694 22.875,99.619133 22.875,101.146484 C22.875,102.643888 22.4707072,103.99153 21.6621094,105.189453 C20.8535116,106.387376 19.6705807,107.315752 18.1132812,107.974609 C19.0566453,108.229168 19.8764614,108.59977 20.5727539,109.086426 C21.2690465,109.573082 21.8455381,110.14583 22.3022461,110.804688 C22.7589541,111.463545 23.0996083,112.189775 23.3242188,112.983398 C23.5488292,113.777022 23.6611328,114.600582 23.6611328,115.454102 C23.6611328,117.026375 23.4028346,118.407709 22.8862305,119.598145 C22.3696263,120.78858 21.6209359,121.784338 20.6401367,122.585449 C19.6593375,123.38656 18.4689198,123.989256 17.0688477,124.393555 C15.6687756,124.797854 14.0852953,125 12.3183594,125 L0.3242188,125 Z M6.0068359,110.243164 L6.0068359,120.462891 L12.3183594,120.462891 C13.2467494,120.462891 14.0665655,120.3431 14.777832,120.103516 C15.4890986,119.863931 16.0843075,119.523277 16.5634766,119.081543 C17.0426456,118.639809 17.402017,118.111982 17.6416016,117.498047 C17.8811861,116.884112 18.0009766,116.202803 18.0009766,115.454102 C18.0009766,113.836906 17.574223,112.564132 16.7207031,111.635742 C15.8671832,110.707352 14.4821059,110.243164 12.5654297,110.243164 L6.0068359,110.243164 Z M6.0068359,106.06543 L11.5771484,106.06543 C13.3440844,106.06543 14.7254182,105.66488 15.7211914,104.86377 C16.7169646,104.062659 17.2148438,102.928393 17.2148438,101.460938 C17.2148438,99.843742 16.7543991,98.675785 15.8334961,97.957031 C14.9125931,97.238278 13.4788509,96.878906 11.5322266,96.878906 L6.0068359,96.878906 L6.0068359,106.06543 Z M53.2646484,92.296875 L53.2646484,114.173828 C53.2646484,116.045582 52.946455,117.685214 52.3100586,119.092773 C51.6736622,120.500333 50.8014378,121.675777 49.6933594,122.619141 C48.5852809,123.562505 47.2900465,124.270017 45.8076172,124.741699 C44.3251879,125.213381 42.7379642,125.449219 41.0458984,125.449219 C39.2939366,125.449219 37.6730218,125.213381 36.1831055,124.741699 C34.6931892,124.270017 33.4016982,123.562505 32.3085938,122.619141 C31.2154893,121.675777 30.3619822,120.500333 29.7480469,119.092773 C29.1341115,117.685214 28.8271484,116.045582 28.8271484,114.173828 L28.8271484,92.296875 L34.4873047,92.296875 L34.4873047,114.173828 C34.4873047,115.341803 34.6407862,116.348791 34.9477539,117.194824 C35.2547216,118.040857 35.6927055,118.740883 36.2617188,119.294922 C36.830732,119.848961 37.5195272,120.256997 38.328125,120.519043 C39.1367228,120.781089 40.0426382,120.912109 41.0458984,120.912109 C42.0491587,120.912109 42.9588175,120.781089 43.7749023,120.519043 C44.5909872,120.256997 45.2797823,119.848961 45.8413086,119.294922 C46.4028348,118.740883 46.8370753,118.040857 47.144043,117.194824 C47.4510106,116.348791 47.6044922,115.341803 47.6044922,114.173828 L47.6044922,92.296875 L53.2646484,92.296875 Z M84.395508,120.754883 C84.051105,121.204104 83.571943,121.701983 82.958008,122.248535 C82.344072,122.795087 81.554204,123.304197 80.5883789,123.775879 C79.6225538,124.247561 78.4620836,124.644367 77.1069336,124.966309 C75.7517836,125.28825 74.1608164,125.449219 72.3339844,125.449219 C70.2825418,125.449219 68.3995854,125.097334 66.6850586,124.393555 C64.9705318,123.689775 63.4993551,122.671556 62.2714844,121.338867 C61.0436137,120.006178 60.0890334,118.366546 59.4077148,116.419922 C58.7263963,114.473298 58.3857422,112.249687 58.3857422,109.749023 L58.3857422,107.592773 C58.3857422,105.107084 58.6927053,102.887217 59.3066406,100.933105 C59.920576,98.978994 60.8040307,97.328132 61.9570312,95.980469 C63.1100318,94.632806 64.5175698,93.6071 66.1796875,92.90332 C67.8418052,92.199541 69.7285051,91.847656 71.8398438,91.847656 C73.8313902,91.847656 75.568352,92.105954 77.0507812,92.622559 C78.5332105,93.139163 79.7835236,93.861649 80.8017578,94.790039 C81.8199921,95.718429 82.621091,96.822748 83.205078,98.103027 C83.789065,99.383307 84.178384,100.787102 84.373047,102.314453 L78.8027344,102.314453 C78.6679681,101.460933 78.4433609,100.674808 78.1289062,99.956055 C77.8144516,99.237301 77.3839546,98.615888 76.8374023,98.091797 C76.2908501,97.567706 75.6170287,97.155926 74.815918,96.856445 C74.0148072,96.556965 73.0602269,96.407227 71.9521484,96.407227 C70.6194595,96.407227 69.4627328,96.654294 68.4819336,97.148438 C67.5011344,97.642581 66.6850619,98.365067 66.0336914,99.315918 C65.382321,100.266769 64.8956722,101.434726 64.5737305,102.819824 C64.2517888,104.204922 64.0908203,105.780916 64.0908203,107.547852 L64.0908203,109.749023 C64.0908203,111.545907 64.2854798,113.136875 64.6748047,114.521973 C65.0641296,115.907071 65.6219039,117.071284 66.3481445,118.014648 C67.0743851,118.958013 67.9578398,119.676755 68.9985352,120.170898 C70.0392305,120.665042 71.2184179,120.912109 72.5361328,120.912109 C73.509445,120.912109 74.3442348,120.848471 75.0405273,120.721191 C75.7368199,120.593912 76.3245419,120.432944 76.8037109,120.238281 C77.28288,120.043619 77.6759425,119.830242 77.9829102,119.598145 C78.2898778,119.366047 78.5406891,119.145183 78.7353516,118.935547 L78.7353516,112.53418 L71.9970703,112.53418 L71.9970703,108.22168 L84.395508,108.22168 L84.395508,120.754883 Z M107.732422,116.577148 C107.732422,115.918291 107.635092,115.330569 107.44043,114.813965 C107.245767,114.297361 106.890139,113.821942 106.373535,113.387695 C105.856931,112.953448 105.145675,112.537925 104.239746,112.141113 C103.333817,111.744301 102.169603,111.328778 100.74707,110.894531 C99.189771,110.430336 97.752285,109.898766 96.43457,109.299805 C95.116855,108.700843 93.982589,108.004561 93.031738,107.210938 C92.080887,106.417314 91.33594,105.503911 90.796875,104.470703 C90.25781,103.437495 89.988281,102.254564 89.988281,100.921875 C89.988281,99.60416 90.26904,98.391282 90.830566,97.283203 C91.392093,96.175125 92.181961,95.216801 93.200195,94.408203 C94.21843,93.599605 95.438795,92.970705 96.861328,92.521484 C98.283861,92.072263 99.856111,91.847656 101.578125,91.847656 C103.419931,91.847656 105.074537,92.113441 106.541992,92.64502 C108.009447,93.176598 109.24853,93.899084 110.259277,94.8125 C111.270025,95.725916 112.044919,96.785313 112.583984,97.990723 C113.12305,99.196132 113.392578,100.480136 113.392578,101.842773 L107.732422,101.842773 C107.732422,101.04915 107.608888,100.319177 107.361816,99.652832 C107.114745,98.986488 106.736656,98.409996 106.227539,97.92334 C105.718422,97.436684 105.074548,97.058595 104.295898,96.789062 C103.517249,96.51953 102.596359,96.384766 101.533203,96.384766 C100.529943,96.384766 99.661462,96.497069 98.927734,96.72168 C98.194007,96.94629 97.583824,97.26074 97.097168,97.665039 C96.610512,98.069338 96.25114,98.5485 96.019043,99.102539 C95.786945,99.656578 95.670898,100.255531 95.670898,100.899414 C95.670898,102.112311 96.243647,103.123043 97.38916,103.931641 C98.534674,104.740238 100.282866,105.488929 102.633789,106.177734 C104.475595,106.7168 106.070306,107.315752 107.417969,107.974609 C108.765632,108.633467 109.884924,109.378414 110.775879,110.209473 C111.666834,111.040531 112.329425,111.976395 112.763672,113.01709 C113.197919,114.057785 113.415039,115.229486 113.415039,116.532227 C113.415039,117.909838 113.141767,119.14892 112.595215,120.249512 C112.048663,121.350103 111.270025,122.285966 110.259277,123.057129 C109.24853,123.828292 108.024421,124.419757 106.586914,124.831543 C105.149407,125.243329 103.547209,125.449219 101.780273,125.449219 C100.208,125.449219 98.658211,125.235842 97.130859,124.809082 C95.603508,124.382322 94.233405,123.738448 93.020508,122.877441 C91.807611,122.016434 90.83057,120.942064 90.089355,119.654297 C89.348141,118.36653 88.977539,116.854175 88.977539,115.117188 L94.660156,115.117188 C94.660156,116.150396 94.843585,117.037594 95.210449,117.778809 C95.577313,118.520023 96.078936,119.126462 96.715332,119.598145 C97.351728,120.069827 98.104162,120.414224 98.972656,120.631348 C99.84115,120.848471 100.777013,120.957031 101.780273,120.957031 C103.756846,120.957031 105.242996,120.556482 106.23877,119.755371 C107.234543,118.95426 107.732422,117.894863 107.732422,116.577148 Z M137.515625,110.400391 L124.083984,110.400391 L124.083984,120.462891 L139.78418,120.462891 L139.78418,125 L118.401367,125 L118.401367,92.296875 L139.626953,92.296875 L139.626953,96.878906 L124.083984,96.878906 L124.083984,105.908203 L137.515625,105.908203 L137.515625,110.400391 Z M163.525391,110.400391 L150.09375,110.400391 L150.09375,120.462891 L165.793945,120.462891 L165.793945,125 L144.411133,125 L144.411133,92.296875 L165.636719,92.296875 L165.636719,96.878906 L150.09375,96.878906 L150.09375,105.908203 L163.525391,105.908203 L163.525391,110.400391 Z" id="BUGSEE" fill="#FFFFFF"></path>
        </g>
    </g>
</svg>